nColumns=19
nRows=80
DataType=double
version=3
OpenSimVersion=4.1
endheader
time	ground_force_1_vx	ground_force_1_vy	ground_force_1_vz	ground_force_1_px	ground_force_1_py	ground_force_1_pz	ground_force_1_mx	ground_force_1_my	ground_force_1_mz	ground_force_2_vx	ground_force_2_vy	ground_force_2_vz	ground_force_2_px	ground_force_2_py	ground_force_2_pz	ground_force_2_mx	ground_force_2_my	ground_force_2_mz
0.905	0	0	0	0.500849	0	-0.220931	0	0	0	-76.1829	2815.96	76.4766	0.79082	0	-0.346884	0	-3.48891	0
0.91	0	0	0	0.524538	0	-0.219096	0	0	0	-6.39036	2772.09	63.4403	0.766682	0	-0.346819	0	0.839105	0
0.915	0	0	0	0.549204	0	-0.217727	0	0	0	64.1079	2709.95	62.1653	0.743232	0	-0.345934	0	0.003381	0
0.92	0	0	0	0.574696	0	-0.216199	0	0	0	134.778	2629.26	65.6257	0.719782	0	-0.344441	0	-9.47412	0
0.925	0	0	0	0.601403	0	-0.214489	0	0	0	200.929	2531.88	57.9119	0.696625	0	-0.342639	0	-22.8417	0
0.93	0	0	0	0.628684	0	-0.213146	0	0	0	260.82	2419.7	26.1824	0.675516	0	-0.341038	0	-27.3581	0
0.935	0	0	0	0.656945	0	-0.211985	0	0	0	313.587	2291.69	-29.3767	0.657922	0	-0.339963	0	-12.1709	0
0.94	0	0	0	0.685743	0	-0.210894	0	0	0	357.284	2139.09	-95.7974	0.642779	0	-0.339656	0	21.4564	0
0.945	0	0	0	0.715246	0	-0.209669	0	0	0	391.83	1948.85	-150.335	0.626554	0	-0.340047	0	57.5166	0
0.95	0	0	0	0.745233	0	-0.208621	0	0	0	417.693	1713.9	-168.227	0.603313	0	-0.340934	0	75.8461	0
0.955	0	0	0	0.775925	0	-0.206067	0	0	0	434.752	1435.94	-135.173	0.564795	0	-0.342	0	65.3427	0
0.96	0	0	0	0.806132	0	-0.204591	0	0	0	440.629	1129.06	-59.5646	0.502118	0	-0.343373	0	25.1716	0
0.965	0	0	0	0.836444	0	-0.203007	0	0	0	428.565	820.106	27.5486	0.407114	0	-0.34525	0	-35.1611	0
0.97	0	0	0	0.866676	0	-0.201384	0	0	0	391.612	542.904	83.2561	0.280075	0	-0.348918	0	-87.9461	0
0.975	0	0	0	0.896671	0	-0.200244	0	0	0	328.952	328.451	80.4119	0.155144	0	-0.356021	0	-94.1947	0
0.98	0	0	0	0.927089	0	-0.198862	0	0	0	246.939	187.504	26.6942	0.180787	-0	-0.358383	0	-38.9418	0
0.985	0	0	0	0.956756	0	-0.198588	0	0	0	161.279	96.5881	-37.6173	0.371429	0	-0.342841	0	29.484	0
0.99	0	0	0	0.986302	0	-0.198943	0	0	0	90.266	36.2529	-71.9159	0.351502	0	-0.344123	0	56.9754	0
0.995	0	0	0	1.01611	0	-0.199449	0	0	0	0	0	0	0.332322	0	-0.345461	0	0	0
1	0	0	0	1.04524	0	-0.200707	0	0	0	0	0	0	0.314076	0	-0.346817	0	0	0
1.005	0	0	0	1.07422	0	-0.201868	0	0	0	0	0	0	0.295583	0	-0.347987	0	0	0
1.01	0	0	0	1.10269	0	-0.20283	0	0	0	0	0	0	0.278824	0	-0.348286	0	0	0
1.015	0	0	0	1.13105	0	-0.204831	0	0	0	0	0	0	0.26279	0	-0.344903	0	0	0
1.02	0	0	0	1.15797	0	-0.205822	0	0	0	0	0	0	0.243526	0	-0.342217	0	0	0
1.025	0	0	0	1.18367	0	-0.206398	0	0	0	0	0	0	0.225479	0	-0.338207	0	0	0
1.03	0	0	0	1.20806	0	-0.206858	0	0	0	0	0	0	0.21042	0	-0.334031	0	0	0
1.035	0	0	0	1.23077	0	-0.207847	0	0	0	0	0	0	0.19681	0	-0.329424	0	0	0
1.04	0	0	0	1.25152	0	-0.208366	0	0	0	0	0	0	0.183298	0	-0.324456	0	0	0
1.045	0	0	0	1.27051	0	-0.2092	0	0	0	0	0	0	0.169939	0	-0.319573	0	0	0
1.05	0	0	0	1.28699	0	-0.209652	0	0	0	0	0	0	0.155953	0	-0.314472	0	0	0
1.055	0	0	0	1.30101	0	-0.210607	0	0	0	0	0	0	0.144391	0	-0.309958	0	0	0
1.06	0	0	0	1.31247	0	-0.211463	0	0	0	0	0	0	0.133844	0	-0.305757	0	0	0
1.065	0	0	0	1.32129	0	-0.212533	0	0	0	0	0	0	0.124811	0	-0.301914	0	0	0
1.07	0	0	0	1.32776	0	-0.213588	0	0	0	0	0	0	0.116966	0	-0.298517	0	0	0
1.075	0	0	0	1.33188	0	-0.214685	0	0	0	0	0	0	0.11061	0	-0.295147	0	0	0
1.08	0	0	0	1.33378	0	-0.21579	0	0	0	0	0	0	0.106202	0	-0.293191	0	0	0
1.085	0	0	0	1.33351	0	-0.216745	0	0	0	0	0	0	0.103653	0	-0.29193	0	0	0
1.09	0	0	0	1.33111	0	-0.217764	0	0	0	0	0	0	0.102766	0	-0.28936	0	0	0
1.095	0	0	0	1.32664	0	-0.218557	0	0	0	0	0	0	0.103727	0	-0.288591	0	0	0
1.1	0	0	0	1.31996	0	-0.219309	0	0	0	0	0	0	0.10626	0	-0.288744	0	0	0
1.105	0	0	0	1.31127	0	-0.21966	0	0	0	0	0	0	0.110033	0	-0.289138	0	0	0
1.11	0	0	0	1.30056	0	-0.220284	0	0	0	0	0	0	0.115274	0	-0.290857	0	0	0
1.115	0	0	0	1.28785	0	-0.220973	0	0	0	0	0	0	0.121761	0	-0.292825	0	0	0
1.12	0	0	0	1.27333	0	-0.221712	0	0	0	0	0	0	0.129375	0	-0.295061	0	0	0
1.125	0	0	0	1.25731	0	-0.224082	0	0	0	0	0	0	0.134813	0	-0.298395	0	0	0
1.13	0	0	0	1.23922	0	-0.225326	0	0	0	0	0	0	0.147723	0	-0.301474	0	0	0
1.135	0	0	0	1.22004	0	-0.227648	0	0	0	0	0	0	0.15918	0	-0.304662	0	0	0
1.14	-60.0715	97.1595	-10.5736	1.18871	-0	-0.227966	0	1.36951	0	0	0	0	0.170653	0	-0.307676	0	0	0
1.145	-99.1033	260.744	-37.3552	1.07413	0	-0.211954	0	-2.91425	0	0	0	0	0.183638	0	-0.311477	0	0	0
1.15	-137.49	498.341	-80.8618	1.03882	0	-0.225788	0	-8.7493	0	0	0	0	0.196962	0	-0.314329	0	0	0
1.155	-165.906	789.388	-134.637	1.01892	0	-0.236318	0	-13.0937	0	0	0	0	0.211086	0	-0.317642	0	0	0
1.16	-179.15	1114.39	-179.493	1.00684	0	-0.244689	0	-10.5445	0	0	0	0	0.22601	0	-0.320982	0	0	0
1.165	-188.127	1450.81	-194.85	0.996206	0	-0.250675	0	1.63115	0	0	0	0	0.24156	0	-0.324027	0	0	0
1.17	-215.388	1763.88	-175.112	0.984689	0	-0.25465	0	16.2857	0	0	0	0	0.257516	0	-0.326956	0	0	0
1.175	-272.927	2021.88	-126.199	0.975141	0	-0.257015	0	22.2962	0	0	0	0	0.273784	0	-0.329893	0	0	0
1.18	-349.666	2219.25	-57.0617	0.970602	0	-0.258	0	18.8127	0	0	0	0	0.290278	0	-0.332918	0	0	0
1.185	-424.837	2373.85	19.2386	0.968858	0	-0.25801	0	14.224	0	0	0	0	0.306997	0	-0.335937	0	0	0
1.19	-482.279	2500.56	83.6871	0.963437	0	-0.257494	0	12.0644	0	0	0	0	0.323851	0	-0.338885	0	0	0
1.195	-505.115	2601.73	116.706	0.949534	0	-0.256963	0	7.92395	0	0	0	0	0.341006	0	-0.341641	0	0	0
1.2	-479.706	2678.85	112.548	0.925561	0	-0.256461	0	-0.033173	0	0	0	0	0.35848	0	-0.344396	0	0	0
1.205	-407.43	2738.13	76.1897	0.893647	0	-0.256285	0	-7.62152	0	0	0	0	0.376367	0	-0.347594	0	0	0
1.21	-309.476	2783.97	21.507	0.859914	0	-0.256439	0	-10.4332	0	0	0	0	0.394897	0	-0.350439	0	0	0
1.215	-216.096	2811.8	-33.9814	0.829187	0	-0.256686	0	-7.7272	0	0	0	0	0.414165	0	-0.353099	0	0	0
1.22	-139.25	2812.78	-74.7316	0.80172	0	-0.256701	0	-2.58428	0	0	0	0	0.43422	0	-0.355213	0	0	0
1.225	-66.3386	2789.18	-95.3413	0.776472	0	-0.256551	0	0.990656	0	0	0	0	0.455087	0	-0.357752	0	0	0
1.23	15.5947	2747.58	-102.995	0.752616	0	-0.256501	0	3.3329	0	0	0	0	0.477003	0	-0.359618	0	0	0
1.235	102.427	2685.37	-107.438	0.728799	0	-0.256864	0	7.54211	0	0	0	0	0.499792	0	-0.361656	0	0	0
1.24	183.431	2596.87	-108.892	0.705043	0	-0.257657	0	14.5969	0	0	0	0	0.523614	0	-0.363737	0	0	0
1.245	252.326	2483.61	-99.3419	0.683591	0	-0.258556	0	21.8761	0	0	0	0	0.548525	0	-0.366392	0	0	0
1.25	304.341	2350.31	-71.6068	0.66672	0	-0.259066	0	22.1919	0	0	0	0	0.566359	0	-0.356988	0	0	0
1.255	337.753	2196.22	-26.2529	0.654586	0	-0.258786	0	9.27195	0	0	0	0	0.601266	0	-0.36748	0	0	0
1.26	357.128	2018.02	27.7203	0.644861	0	-0.257711	0	-12.9285	0	0	0	0	0.629418	0	-0.368275	0	0	0
1.265	372.494	1812.06	76.2548	0.633193	0	-0.256158	0	-33.9365	0	0	0	0	0.658078	0	-0.368734	0	0	0
1.27	390.343	1572.6	102.535	0.611903	0	-0.254875	0	-45.2673	0	0	0	0	0.687387	0	-0.368759	0	0	0
1.275	408.968	1295.41	94.4892	0.569076	0	-0.254612	0	-42.7538	0	0	0	0	0.717282	0	-0.368392	0	0	0
1.28	423.288	991.723	54.9575	0.49088	0	-0.25623	0	-25.1825	0	0	0	0	0.74737	0	-0.367989	0	0	0
1.285	425.634	695.897	6.24519	0.368188	0	-0.260346	0	4.85323	0	0	0	0	0.778061	0	-0.367846	0	0	0
1.29	405.261	447.845	-25.7804	0.211632	0	-0.2664	0	37.7587	0	0	0	0	0.808576	0	-0.366863	0	0	0
1.295	351.937	274.847	-28.2288	0.079743	0	-0.271221	0	51.0759	0	0	0	0	0.839091	0	-0.365844	0	0	0
1.3	266.559	172.666	-7.03878	0.189567	-0	-0.260264	0	30.933	0	0	0	0	0.869503	0	-0.365459	0	0	0
